<svg xmlns="http://www.w3.org/2000/svg" width="900" height="180" viewBox="0 0 900 180" role="img">
<defs>
<linearGradient id="bgGrad" x1="0%" y1="0%" x2="100%" y2="100%">
  <stop offset="0%" style="stop-color:#667eea;stop-opacity:0.1" />
  <stop offset="100%" style="stop-color:#764ba2;stop-opacity:0.1" />
</linearGradient>
<filter id="glow0">
  <feGaussianBlur stdDeviation="2" result="coloredBlur"/>
  <feMerge>
    <feMergeNode in="coloredBlur"/>
    <feMergeNode in="SourceGraphic"/>
  </feMerge>
</filter>
<filter id="glow1">
  <feGaussianBlur stdDeviation="2" result="coloredBlur"/>
  <feMerge>
    <feMergeNode in="coloredBlur"/>
    <feMergeNode in="SourceGraphic"/>
  </feMerge>
</filter>
<filter id="glow2">
  <feGaussianBlur stdDeviation="2" result="coloredBlur"/>
  <feMerge>
    <feMergeNode in="coloredBlur"/>
    <feMergeNode in="SourceGraphic"/>
  </feMerge>
</filter>
<filter id="glow3">
  <feGaussianBlur stdDeviation="2" result="coloredBlur"/>
  <feMerge>
    <feMergeNode in="coloredBlur"/>
    <feMergeNode in="SourceGraphic"/>
  </feMerge>
</filter>
<filter id="glow4">
  <feGaussianBlur stdDeviation="2" result="coloredBlur"/>
  <feMerge>
    <feMergeNode in="coloredBlur"/>
    <feMergeNode in="SourceGraphic"/>
  </feMerge>
</filter>
</defs>
<style>
.contact-title { font: 600 11px ui-sans-serif,system-ui,-apple-system,Segoe UI,Roboto,Arial; }
</style>
<rect width="900" height="180" rx="16" fill="#0d1117"/>
<rect x="8" y="8" width="884" height="164" rx="12" fill="#161b22"/>
<text x="450" y="35" text-anchor="middle" fill="#c9d1d9" font-family="ui-sans-serif,system-ui" font-size="20" font-weight="700">💬 Vamos conversar?</text>
<text x="450" y="55" text-anchor="middle" fill="#8b949e" font-family="ui-sans-serif,system-ui" font-size="12">Escolha seu canal preferido de contato</text>
<a href="mailto:vinii.rbarbosa@gmail.com" target="_blank">
<g>
  <circle cx="50" cy="90" r="24" fill="#21262d" opacity="0.8"/>
  <g transform="translate(38, 78) scale(1)">
    <path d="M20 4H4c-1.1 0-1.99.9-1.99 2L2 18c0 1.1.9 2 2 2h16c1.1 0 2-.9 2-2V6c0-1.1-.9-2-2-2zm0 4l-8 5-8-5V6l8 5 8-5v2z" fill="#EA4335" opacity="0.9"/>
  </g>
  <text x="50" y="132" class="contact-title" text-anchor="middle" fill="#8b949e">Gmail</text>
</g>
</a>
<a href="mailto:viniirb@proton.me" target="_blank">
<g>
  <circle cx="230" cy="90" r="24" fill="#21262d" opacity="0.8"/>
  <g transform="translate(218, 78) scale(1)">
    <path d="M12 2L3 7v7c0 5.5 3.8 10.7 9 12 5.2-1.3 9-6.5 9-12V7l-9-5zm0 2.2L19 8v6c0 4.5-3.2 8.8-7 10-3.8-1.2-7-5.5-7-10V8l7-3.8z" fill="#6D4AFF" opacity="0.9"/>
  </g>
  <text x="230" y="132" class="contact-title" text-anchor="middle" fill="#8b949e">ProtonMail</text>
</g>
</a>
<a href="https://www.linkedin.com/in/vinicius-rolim-barbosa-15b066374/" target="_blank">
<g>
  <circle cx="410" cy="90" r="24" fill="#21262d" opacity="0.8"/>
  <g transform="translate(398, 78) scale(1)">
    <path d="M19 3a2 2 0 0 1 2 2v14a2 2 0 0 1-2 2H5a2 2 0 0 1-2-2V5a2 2 0 0 1 2-2h14m-.5 15.5v-5.3a3.26 3.26 0 0 0-3.26-3.26c-.85 0-1.84.52-2.32 1.3v-1.11h-2.79v8.37h2.79v-4.93c0-.77.62-1.4 1.39-1.4a1.4 1.4 0 0 1 1.4 1.4v4.93h2.79M6.88 8.56a1.68 1.68 0 0 0 1.68-1.68c0-.93-.75-1.69-1.68-1.69a1.69 1.69 0 0 0-1.69 1.69c0 .93.76 1.68 1.69 1.68m1.39 9.94v-8.37H5.5v8.37h2.77z" fill="#0A66C2" opacity="0.9"/>
  </g>
  <text x="410" y="132" class="contact-title" text-anchor="middle" fill="#8b949e">LinkedIn</text>
</g>
</a>
<a href="https://github.com/Viniirb?tab=repositories" target="_blank">
<g>
  <circle cx="590" cy="90" r="24" fill="#21262d" opacity="0.8"/>
  <g transform="translate(578, 78) scale(1)">
    <path d="M12 2A10 10 0 0 0 2 12c0 4.42 2.87 8.17 6.84 9.5.5.08.66-.23.66-.5v-1.69c-2.77.6-3.36-1.34-3.36-1.34-.46-1.16-1.11-1.47-1.11-1.47-.91-.62.07-.6.07-.6 1 .07 1.53 1.03 1.53 1.03.87 1.52 2.34 1.07 2.91.83.09-.65.35-1.09.63-1.34-2.22-.25-4.55-1.11-4.55-4.92 0-1.11.38-2 1.03-2.71-.1-.25-.45-1.29.1-2.64 0 0 .84-.27 2.75 1.02.79-.22 1.65-.33 2.5-.33.85 0 1.71.11 2.5.33 1.91-1.29 2.75-1.02 2.75-1.02.55 1.35.2 2.39.1 2.64.65.71 1.03 1.6 1.03 2.71 0 3.82-2.34 4.66-4.57 4.91.36.31.69.92.69 1.85V21c0 .27.16.59.67.5C19.14 20.16 22 16.42 22 12A10 10 0 0 0 12 2z" fill="#181717" opacity="0.9"/>
  </g>
  <text x="590" y="132" class="contact-title" text-anchor="middle" fill="#8b949e">GitHub</text>
</g>
</a>
<a href="https://myportifolio-vinicius.vercel.app/" target="_blank">
<g>
  <circle cx="770" cy="90" r="24" fill="#21262d" opacity="0.8"/>
  <g transform="translate(758, 78) scale(1)">
    <path d="M3 3h18v18H3V3m16 16V5H5v14h14m-4-4h2v2h-2v-2m-4 0h2v2h-2v-2m-4 0h2v2H7v-2m12-4h-2v2h2v-2m-4 0h-2v2h2v-2m-4 0H7v2h2v-2m8-4h-2v2h2V7m-4 0h-2v2h2V7m-4 0H7v2h2V7z" fill="#000000" opacity="0.9"/>
  </g>
  <text x="770" y="132" class="contact-title" text-anchor="middle" fill="#8b949e">Portfólio</text>
</g>
</a>
</svg>