<svg xmlns="http://www.w3.org/2000/svg" width="900" height="673" viewBox="0 0 900 673" role="img">
<defs>
<linearGradient id="barGradient" x1="0%" y1="0%" x2="100%" y2="0%">
  <stop offset="0%" style="stop-color:#8A2BE2;stop-opacity:1" />
  <stop offset="100%" style="stop-color:#a855f7;stop-opacity:1" />
</linearGradient>
</defs>
<style>
.title{font:700 20px ui-sans-serif,system-ui,-apple-system,Segoe UI,Roboto,Arial;}
.sub{font:500 13px ui-sans-serif,system-ui,-apple-system,Segoe UI,Roboto,Arial;}
.repo-name{font:700 16px ui-sans-serif,system-ui,-apple-system,Segoe UI,Roboto,Arial;}
.stat{font:600 13px ui-sans-serif,system-ui,-apple-system,Segoe UI,Roboto,Arial;}
</style>
<rect x="0" y="0" width="900" height="673" rx="14" fill="#0d1117"/>
<rect x="12" y="12" width="876" height="649" rx="12" fill="#161b22"/>
<text x="24" y="44" class="title" fill="#c9d1d9">Repositórios — Atividade e Stats</text>
<text x="24" y="66" class="sub" fill="#8b949e">@Viniirb • 10 repos com total de 162 commits</text>
<text x="24" y="104" class="repo-name" fill="#c9d1d9">📦 portifolio</text>
<rect x="284" y="92" width="280" height="14" rx="7" fill="#21262d"/>
<rect x="284" y="92" width="280" height="14" rx="7" fill="url(#barGradient)"/>
<text x="284" y="122" class="stat" fill="#8b949e">💬 112 commits</text>
<text x="384" y="122" class="stat" fill="#8b949e">⭐ 1</text>
<text x="454" y="122" class="stat" fill="#8b949e">📅 30/03/26</text>
<text x="24" y="159" class="repo-name" fill="#c9d1d9">📦 NLW-Expert---Rocketseat</text>
<rect x="284" y="147" width="280" height="14" rx="7" fill="#21262d"/>
<rect x="284" y="147" width="30" height="14" rx="7" fill="url(#barGradient)"/>
<text x="284" y="177" class="stat" fill="#8b949e">💬 12 commits</text>
<text x="384" y="177" class="stat" fill="#8b949e">⭐ 1</text>
<text x="454" y="177" class="stat" fill="#8b949e">📅 08/02/24</text>
<text x="24" y="214" class="repo-name" fill="#c9d1d9">📦 skills-communicate-using-ma...</text>
<rect x="284" y="202" width="280" height="14" rx="7" fill="#21262d"/>
<rect x="284" y="202" width="20" height="14" rx="7" fill="url(#barGradient)"/>
<text x="284" y="232" class="stat" fill="#8b949e">💬 8 commits</text>
<text x="384" y="232" class="stat" fill="#8b949e">⭐ 1</text>
<text x="454" y="232" class="stat" fill="#8b949e">📅 04/02/26</text>
<text x="24" y="269" class="repo-name" fill="#c9d1d9">📦 formacao-csharp-rocketseat</text>
<rect x="284" y="257" width="280" height="14" rx="7" fill="#21262d"/>
<rect x="284" y="257" width="15" height="14" rx="7" fill="url(#barGradient)"/>
<text x="284" y="287" class="stat" fill="#8b949e">💬 6 commits</text>
<text x="384" y="287" class="stat" fill="#8b949e">⭐ 1</text>
<text x="454" y="287" class="stat" fill="#8b949e">📅 17/02/26</text>
<text x="24" y="324" class="repo-name" fill="#c9d1d9">📦 TesteBluData</text>
<rect x="284" y="312" width="280" height="14" rx="7" fill="#21262d"/>
<rect x="284" y="312" width="15" height="14" rx="7" fill="url(#barGradient)"/>
<text x="284" y="342" class="stat" fill="#8b949e">💬 6 commits</text>
<text x="384" y="342" class="stat" fill="#8b949e">⭐ 1</text>
<text x="454" y="342" class="stat" fill="#8b949e">📅 03/02/26</text>
<text x="24" y="379" class="repo-name" fill="#c9d1d9">📦 skills-introduction-to-github</text>
<rect x="284" y="367" width="280" height="14" rx="7" fill="#21262d"/>
<rect x="284" y="367" width="12" height="14" rx="7" fill="url(#barGradient)"/>
<text x="284" y="397" class="stat" fill="#8b949e">💬 5 commits</text>
<text x="384" y="397" class="stat" fill="#8b949e">⭐ 1</text>
<text x="454" y="397" class="stat" fill="#8b949e">📅 04/02/26</text>
<text x="24" y="434" class="repo-name" fill="#c9d1d9">📦 skills-introduction-to-git</text>
<rect x="284" y="422" width="280" height="14" rx="7" fill="#21262d"/>
<rect x="284" y="422" width="10" height="14" rx="7" fill="url(#barGradient)"/>
<text x="284" y="452" class="stat" fill="#8b949e">💬 4 commits</text>
<text x="384" y="452" class="stat" fill="#8b949e">⭐ 1</text>
<text x="454" y="452" class="stat" fill="#8b949e">📅 30/03/26</text>
<text x="24" y="489" class="repo-name" fill="#c9d1d9">📦 neural-networks-from-scratch</text>
<rect x="284" y="477" width="280" height="14" rx="7" fill="#21262d"/>
<rect x="284" y="477" width="10" height="14" rx="7" fill="url(#barGradient)"/>
<text x="284" y="507" class="stat" fill="#8b949e">💬 4 commits</text>
<text x="384" y="507" class="stat" fill="#8b949e">⭐ 1</text>
<text x="454" y="507" class="stat" fill="#8b949e">📅 26/01/26</text>
<text x="24" y="544" class="repo-name" fill="#c9d1d9">📦 gemini-rag-lab</text>
<rect x="284" y="532" width="280" height="14" rx="7" fill="#21262d"/>
<rect x="284" y="532" width="7" height="14" rx="7" fill="url(#barGradient)"/>
<text x="284" y="562" class="stat" fill="#8b949e">💬 3 commits</text>
<text x="384" y="562" class="stat" fill="#8b949e">⭐ 1</text>
<text x="454" y="562" class="stat" fill="#8b949e">📅 22/01/26</text>
<text x="24" y="599" class="repo-name" fill="#c9d1d9">📦 Bootcamp</text>
<rect x="284" y="587" width="280" height="14" rx="7" fill="#21262d"/>
<rect x="284" y="587" width="5" height="14" rx="7" fill="url(#barGradient)"/>
<text x="284" y="617" class="stat" fill="#8b949e">💬 2 commits</text>
<text x="384" y="617" class="stat" fill="#8b949e">⭐ 1</text>
<text x="454" y="617" class="stat" fill="#8b949e">📅 01/12/25</text>
</svg>