<svg xmlns="http://www.w3.org/2000/svg" width="900" height="184" viewBox="0 0 900 184" role="img">
<defs>
<linearGradient id="barGradient" x1="0%" y1="0%" x2="100%" y2="0%">
  <stop offset="0%" style="stop-color:#8A2BE2;stop-opacity:1" />
  <stop offset="100%" style="stop-color:#a855f7;stop-opacity:1" />
</linearGradient>
</defs>
<style>
.title{font:700 18px ui-sans-serif,system-ui,-apple-system,Segoe UI,Roboto,Arial;}.sub{font:500 12px ui-sans-serif,system-ui,-apple-system,Segoe UI,Roboto,Arial;}.label{font:600 12px ui-sans-serif,system-ui,-apple-system,Segoe UI,Roboto,Arial;}.count{font:700 13px ui-sans-serif,system-ui,-apple-system,Segoe UI,Roboto,Arial;}
</style>
<rect x="0" y="0" width="900" height="184" rx="14" fill="#0d1117"/>
<rect x="12" y="12" width="876" height="160" rx="12" fill="#161b22"/>
<text x="24" y="42" class="title" fill="#c9d1d9">Commits por repositório — últimos 12 meses</text>
<text x="24" y="62" class="sub" fill="#8b949e">@Viniirb • Top 3 (por commits)</text>
<text x="24" y="82" class="label" fill="#c9d1d9">Viniirb/Viniirb</text>
<rect x="344" y="72" width="420" height="10" rx="5" fill="#21262d"/>
<rect x="344" y="72" width="420" height="10" rx="5" fill="url(#barGradient)"/>
<text x="774" y="82" class="count" fill="#8b949e">35</text>
<text x="24" y="110" class="label" fill="#c9d1d9">Viniirb/portifolio</text>
<rect x="344" y="100" width="420" height="10" rx="5" fill="#21262d"/>
<rect x="344" y="100" width="36" height="10" rx="5" fill="url(#barGradient)"/>
<text x="774" y="110" class="count" fill="#8b949e">3</text>
<text x="24" y="138" class="label" fill="#c9d1d9">Viniirb/agent_database</text>
<rect x="344" y="128" width="420" height="10" rx="5" fill="#21262d"/>
<rect x="344" y="128" width="24" height="10" rx="5" fill="url(#barGradient)"/>
<text x="774" y="138" class="count" fill="#8b949e">2</text>
</svg>